<svg width="81" height="80" viewBox="0 0 81 80" fill="none" xmlns="http://www.w3.org/2000/svg">
<circle cx="40.5615" cy="39.8437" r="39.8037" fill="#A6DBCB"/>
<path d="M19.9375 54.8438V52.9688C19.9375 49.4878 21.3203 46.1494 23.7817 43.688C26.2431 41.2266 29.5815 39.8438 33.0625 39.8438V39.8438C36.5435 39.8438 39.8819 41.2266 42.3433 43.688C44.8047 46.1494 46.1875 49.4878 46.1875 52.9688V54.8438" stroke="#FAFAFA" stroke-width="1.5" stroke-linecap="round"/>
<path d="M42.4375 43.5938C42.4375 41.1073 43.4252 38.7228 45.1834 36.9646C46.9415 35.2065 49.3261 34.2188 51.8125 34.2188V34.2188C53.0436 34.2188 54.2627 34.4612 55.4002 34.9324C56.5376 35.4035 57.5711 36.0941 58.4416 36.9646C59.3122 37.8352 60.0027 38.8687 60.4739 40.0061C60.945 41.1435 61.1875 42.3626 61.1875 43.5938V44.5312" stroke="#FAFAFA" stroke-width="1.5" stroke-linecap="round"/>
<path d="M33.0625 39.8438C35.0516 39.8438 36.9593 39.0536 38.3658 37.6471C39.7723 36.2405 40.5625 34.3329 40.5625 32.3438C40.5625 30.3546 39.7723 28.447 38.3658 27.0404C36.9593 25.6339 35.0516 24.8438 33.0625 24.8438C31.0734 24.8438 29.1657 25.6339 27.7592 27.0404C26.3527 28.447 25.5625 30.3546 25.5625 32.3438C25.5625 34.3329 26.3527 36.2405 27.7592 37.6471C29.1657 39.0536 31.0734 39.8438 33.0625 39.8438V39.8438Z" stroke="#FAFAFA" stroke-width="1.5" stroke-linecap="round" stroke-linejoin="round"/>
<path d="M51.8125 34.2188C53.3043 34.2188 54.7351 33.6261 55.79 32.5712C56.8449 31.5163 57.4375 30.0856 57.4375 28.5938C57.4375 27.1019 56.8449 25.6712 55.79 24.6163C54.7351 23.5614 53.3043 22.9688 51.8125 22.9688C50.3207 22.9688 48.8899 23.5614 47.835 24.6163C46.7801 25.6712 46.1875 27.1019 46.1875 28.5938C46.1875 30.0856 46.7801 31.5163 47.835 32.5712C48.8899 33.6261 50.3207 34.2188 51.8125 34.2188Z" stroke="#FAFAFA" stroke-width="1.5" stroke-linecap="round" stroke-linejoin="round"/>
</svg>
