<svg width="81" height="80" viewBox="0 0 81 80" fill="none" xmlns="http://www.w3.org/2000/svg">
<circle cx="40.3838" cy="39.8437" r="39.8037" fill="#A6DBCB"/>
<path d="M55.3848 36.0938C55.3848 44.3775 40.3848 58.5938 40.3848 58.5938C40.3848 58.5938 25.3848 44.3775 25.3848 36.0938C25.3848 32.1155 26.9651 28.3002 29.7782 25.4871C32.5912 22.6741 36.4065 21.0938 40.3848 21.0938C44.363 21.0938 48.1783 22.6741 50.9914 25.4871C53.8044 28.3002 55.3848 32.1155 55.3848 36.0938V36.0938Z" stroke="#FAFAFA" stroke-width="1.5"/>
<path d="M40.3848 37.9688C40.882 37.9688 41.359 37.7712 41.7106 37.4196C42.0622 37.0679 42.2598 36.591 42.2598 36.0938C42.2598 35.5965 42.0622 35.1196 41.7106 34.7679C41.359 34.4163 40.882 34.2188 40.3848 34.2188C39.8875 34.2188 39.4106 34.4163 39.0589 34.7679C38.7073 35.1196 38.5098 35.5965 38.5098 36.0938C38.5098 36.591 38.7073 37.0679 39.0589 37.4196C39.4106 37.7712 39.8875 37.9688 40.3848 37.9688Z" fill="#FAFAFA" stroke="#FAFAFA" stroke-width="1.5" stroke-linecap="round" stroke-linejoin="round"/>
</svg>
