<svg width="391" height="663" viewBox="0 0 391 663" fill="none" xmlns="http://www.w3.org/2000/svg">
<path fill-rule="evenodd" clip-rule="evenodd" d="M261.735 0.174556C403.009 -4.70366 524.823 93.1993 571.276 226.706C621.101 369.904 605.531 542.653 480.153 627.908C362.713 707.766 213.994 634.237 103.913 544.506C14.6747 471.765 -20.3934 356.605 11.6666 246.03C47.6548 121.906 132.577 4.63444 261.735 0.174556Z" fill="#E5EBF9" fill-opacity="0.5"/>
<path fill-rule="evenodd" clip-rule="evenodd" d="M267.83 56.7367C385.894 52.6599 487.694 134.478 526.516 246.051C568.155 365.722 555.143 510.09 450.364 581.339C352.218 648.076 227.933 586.628 135.937 511.639C61.3597 450.849 32.053 354.608 58.8458 262.2C88.9214 158.469 159.892 60.4639 267.83 56.7367Z" fill="#B5A4F4" fill-opacity="0.3"/>
<path fill-rule="evenodd" clip-rule="evenodd" d="M277.815 148.567C357.857 145.803 426.874 201.272 453.193 276.914C481.423 358.046 472.601 455.921 401.565 504.225C335.027 549.47 250.766 507.811 188.397 456.971C137.837 415.758 117.968 350.511 136.133 287.862C156.523 217.537 204.637 151.094 277.815 148.567Z" fill="#6A49E4" fill-opacity="0.2"/>
</svg>
