<svg width="64" height="63" viewBox="0 0 64 63" fill="none" xmlns="http://www.w3.org/2000/svg">
<ellipse cx="32" cy="31.5396" rx="31.0976" ry="31.1418" fill="#6A49E4"/>
<path fill-rule="evenodd" clip-rule="evenodd" d="M25.3865 15.1153C27.0971 15.0341 27.6425 15.0161 32 15.0161C36.3575 15.0161 36.9029 15.0356 38.6121 15.1153C40.3212 15.1949 41.4879 15.4758 42.5087 15.8828C43.5777 16.2989 44.5475 16.9494 45.3496 17.7905C46.1662 18.6152 46.7962 19.6126 47.1987 20.7152C47.5954 21.7667 47.8667 22.9684 47.9454 24.7259C48.0242 26.4909 48.0417 27.0527 48.0417 31.5395C48.0417 36.0279 48.0227 36.5897 47.9454 38.3517C47.8681 40.1092 47.5954 41.3109 47.1987 42.3624C46.7962 43.4651 46.1652 44.4642 45.3496 45.29C44.5475 46.1312 43.5777 46.7802 42.5087 47.1948C41.4879 47.6033 40.3212 47.8827 38.615 47.9638C36.9029 48.045 36.3575 48.063 32 48.063C27.6425 48.063 27.0971 48.0435 25.3865 47.9638C23.6802 47.8842 22.5135 47.6033 21.4927 47.1948C20.4222 46.7801 19.4522 46.1301 18.6504 45.29C17.8343 44.4649 17.2027 43.4663 16.7998 42.3639C16.4046 41.3124 16.1333 40.1107 16.0546 38.3532C15.9758 36.5882 15.9583 36.0264 15.9583 31.5395C15.9583 27.0512 15.9773 26.4894 16.0546 24.7289C16.1319 22.9684 16.4046 21.7667 16.7998 20.7152C17.2033 19.6128 17.8354 18.6142 18.6519 17.789C19.4526 16.9486 20.4215 16.2981 21.4912 15.8828C22.5121 15.4758 23.6787 15.1964 25.385 15.1153H25.3865ZM38.4823 18.0895C36.7906 18.0099 36.2831 17.9933 32 17.9933C27.7169 17.9933 27.2094 18.0099 25.5177 18.0895C23.9529 18.1631 23.1042 18.432 22.5383 18.6588C21.7902 18.9592 21.255 19.3152 20.6935 19.8935C20.1613 20.4269 19.7517 21.0761 19.4948 21.7937C19.2746 22.3766 19.0135 23.2508 18.9421 24.8626C18.8648 26.605 18.8487 27.1278 18.8487 31.5395C18.8487 35.9513 18.8648 36.474 18.9421 38.2165C19.0135 39.8283 19.2746 40.7025 19.4948 41.2854C19.7515 42.0019 20.1612 42.6523 20.6935 43.1856C21.2112 43.7338 21.8427 44.1559 22.5383 44.4203C23.1042 44.6471 23.9529 44.916 25.5177 44.9896C27.2094 45.0692 27.7154 45.0858 32 45.0858C36.2846 45.0858 36.7906 45.0692 38.4823 44.9896C40.0471 44.916 40.8958 44.6471 41.4617 44.4203C42.2098 44.1199 42.745 43.7639 43.3065 43.1856C43.8387 42.6523 44.2485 42.0019 44.5052 41.2854C44.7254 40.7025 44.9865 39.8283 45.0579 38.2165C45.1352 36.474 45.1512 35.9513 45.1512 31.5395C45.1512 27.1278 45.1352 26.605 45.0579 24.8626C44.9865 23.2508 44.7254 22.3766 44.5052 21.7937C44.2135 21.0231 43.8679 20.4719 43.3065 19.8935C42.7886 19.3454 42.1583 18.9235 41.4617 18.6588C40.8958 18.432 40.0471 18.1631 38.4823 18.0895ZM29.951 36.6333C31.0953 37.1239 32.3695 37.1901 33.5559 36.8206C34.7424 36.4511 35.7674 35.6688 36.4561 34.6073C37.1447 33.5457 37.4542 32.2709 37.3317 31.0004C37.2092 29.73 36.6623 28.5428 35.7844 27.6415C35.2247 27.0654 34.548 26.6243 33.803 26.3499C33.058 26.0755 32.2631 25.9747 31.4757 26.0547C30.6883 26.1347 29.9279 26.3935 29.2493 26.8125C28.5707 27.2316 27.9907 27.8004 27.5511 28.478C27.1115 29.1556 26.8232 29.9252 26.707 30.7313C26.5908 31.5375 26.6496 32.3602 26.8791 33.1401C27.1086 33.92 27.5032 34.6379 28.0344 35.2419C28.5656 35.8459 29.2202 36.3211 29.951 36.6333ZM26.1696 25.534C26.9352 24.7454 27.8442 24.1198 28.8446 23.693C29.845 23.2661 30.9172 23.0465 32 23.0465C33.0828 23.0465 34.155 23.2661 35.1554 23.693C36.1558 24.1198 37.0648 24.7454 37.8304 25.534C38.5961 26.3227 39.2034 27.259 39.6178 28.2894C40.0322 29.3198 40.2455 30.4242 40.2455 31.5395C40.2455 32.6549 40.0322 33.7593 39.6178 34.7897C39.2034 35.8201 38.5961 36.7564 37.8304 37.5451C36.2841 39.1378 34.1868 40.0326 32 40.0326C29.8132 40.0326 27.7159 39.1378 26.1696 37.5451C24.6233 35.9523 23.7545 33.7921 23.7545 31.5395C23.7545 29.287 24.6233 27.1268 26.1696 25.534ZM42.0742 24.3113C42.2639 24.1269 42.4158 23.9052 42.5209 23.6593C42.6259 23.4134 42.682 23.1483 42.6858 22.8797C42.6896 22.611 42.6411 22.3443 42.543 22.0954C42.4449 21.8464 42.2994 21.6202 42.1149 21.4303C41.9305 21.2403 41.7109 21.0904 41.4692 20.9894C41.2275 20.8884 40.9686 20.8383 40.7078 20.8423C40.447 20.8462 40.1896 20.9039 39.9509 21.0122C39.7121 21.1204 39.4969 21.2768 39.3179 21.4723C38.9698 21.8524 38.7793 22.3572 38.7866 22.8797C38.794 23.4021 38.9988 23.901 39.3575 24.2705C39.7162 24.64 40.2006 24.8509 40.7078 24.8585C41.215 24.8661 41.7052 24.6698 42.0742 24.3113Z" fill="#FAFAFA"/>
</svg>
