<svg width="304" height="51" viewBox="0 0 304 51" fill="none" xmlns="http://www.w3.org/2000/svg">
<path d="M13.9331 2.90894C9.42337 5.87885 5.99146 10.2238 4.14684 15.2988C2.30222 20.3738 2.14322 25.9084 3.69343 31.0809C5.24365 36.2535 8.42045 40.7883 12.7523 44.0122C17.0841 47.2361 22.34 48.9773 27.7399 48.9773C33.1397 48.9773 38.3956 47.2361 42.7275 44.0122C47.0593 40.7883 50.2361 36.2535 51.7863 31.0809C53.3365 25.9084 53.1775 20.3738 51.3329 15.2988C49.4883 10.2238 46.0564 5.87885 41.5466 2.90894C37.0368 5.87885 33.6049 10.2238 31.7603 15.2988C29.9157 20.3738 29.7567 25.9084 31.3069 31.0809C32.8571 36.2535 36.0339 40.7883 40.3657 44.0122C44.6975 47.2361 49.9535 48.9773 55.3533 48.9773C60.7532 48.9773 66.0091 47.2361 70.3409 44.0122C74.6727 40.7883 77.8495 36.2535 79.3998 31.0809C80.95 25.9084 80.791 20.3738 78.9463 15.2988C77.1017 10.2238 73.6698 5.87885 69.1601 2.90894C64.6503 5.87885 61.2184 10.2238 59.3738 15.2988C57.5291 20.3738 57.3701 25.9084 58.9203 31.0809C60.4706 36.2535 63.6474 40.7883 67.9792 44.0122C72.311 47.2361 77.5669 48.9773 82.9668 48.9773C88.3666 48.9773 93.6226 47.2361 97.9544 44.0122C102.286 40.7883 105.463 36.2535 107.013 31.0809C108.563 25.9084 108.404 20.3738 106.56 15.2988C104.715 10.2238 101.283 5.87885 96.7735 2.90894C92.2637 5.87885 88.8318 10.2238 86.9872 15.2988C85.1426 20.3738 84.9836 25.9084 86.5338 31.0809C88.084 36.2535 91.2608 40.7883 95.5926 44.0122C99.9245 47.2361 105.18 48.9773 110.58 48.9773C115.98 48.9773 121.236 47.2361 125.568 44.0122C129.9 40.7883 133.076 36.2535 134.627 31.0809C136.177 25.9084 136.018 20.3738 134.173 15.2988C132.329 10.2238 128.897 5.87885 124.387 2.90894C119.877 5.87885 116.445 10.2238 114.601 15.2988C112.756 20.3738 112.597 25.9084 114.147 31.0809C115.697 36.2535 118.874 40.7883 123.206 44.0122C127.538 47.2361 132.794 48.9773 138.194 48.9773C143.594 48.9773 148.849 47.2361 153.181 44.0122C157.513 40.7883 160.69 36.2535 162.24 31.0809C163.79 25.9084 163.631 20.3738 161.787 15.2988C159.942 10.2238 156.51 5.87885 152 2.90894C147.491 5.87885 144.059 10.2238 142.214 15.2988C140.37 20.3738 140.211 25.9084 141.761 31.0809C143.311 36.2535 146.488 40.7883 150.82 44.0122C155.151 47.2361 160.407 48.9773 165.807 48.9773C171.207 48.9773 176.463 47.2361 180.795 44.0122C185.127 40.7883 188.303 36.2535 189.854 31.0809C191.404 25.9084 191.245 20.3738 189.4 15.2988C187.556 10.2238 184.124 5.87885 179.614 2.90894C175.104 5.87885 171.672 10.2238 169.828 15.2988C167.983 20.3738 167.824 25.9084 169.374 31.0809C170.924 36.2535 174.101 40.7883 178.433 44.0122C182.765 47.2361 188.021 48.9773 193.421 48.9773C198.82 48.9773 204.076 47.2361 208.408 44.0122C212.74 40.7883 215.917 36.2535 217.467 31.0809C219.017 25.9084 218.858 20.3738 217.014 15.2988C215.169 10.2238 211.737 5.87885 207.227 2.90894C202.718 5.87885 199.286 10.2238 197.441 15.2988C195.596 20.3738 195.437 25.9084 196.988 31.0809C198.538 36.2535 201.715 40.7883 206.046 44.0122C210.378 47.2361 215.634 48.9773 221.034 48.9773C226.434 48.9773 231.69 47.2361 236.022 44.0122C240.353 40.7883 243.53 36.2535 245.081 31.0809C246.631 25.9084 246.472 20.3738 244.627 15.2988C242.782 10.2238 239.351 5.87885 234.841 2.90894C230.331 5.87885 226.899 10.2238 225.055 15.2988C223.21 20.3738 223.051 25.9084 224.601 31.0809C226.151 36.2535 229.328 40.7883 233.66 44.0122C237.992 47.2361 243.248 48.9773 248.648 48.9773C254.047 48.9773 259.303 47.2361 263.635 44.0122C267.967 40.7883 271.144 36.2535 272.694 31.0809C274.244 25.9084 274.085 20.3738 272.241 15.2988C270.396 10.2238 266.964 5.87885 262.454 2.90894C257.944 5.87885 254.513 10.2238 252.668 15.2988C250.823 20.3738 250.664 25.9084 252.215 31.0809C253.765 36.2535 256.942 40.7883 261.273 44.0122C265.605 47.2361 270.861 48.9773 276.261 48.9773C281.661 48.9773 286.917 47.2361 291.249 44.0122C295.58 40.7883 298.757 36.2535 300.307 31.0809C301.858 25.9084 301.699 20.3738 299.854 15.2988C298.009 10.2238 294.577 5.87885 290.068 2.90894" stroke="#F7B7D2" stroke-opacity="0.3" stroke-width="4"/>
</svg>
