<svg width="63" height="63" viewBox="0 0 63 63" fill="none" xmlns="http://www.w3.org/2000/svg">
<ellipse cx="31.0976" cy="31.5396" rx="31.0976" ry="31.1418" fill="#6A49E4"/>
<path fill-rule="evenodd" clip-rule="evenodd" d="M42.8365 19.8501C41.3118 18.3132 39.4977 17.0946 37.4994 16.2648C35.501 15.435 33.3581 15.0106 31.1948 15.0161C22.1235 15.0161 14.7388 22.4094 14.7352 31.4973C14.7352 34.4018 15.4923 37.2365 16.9315 39.737L14.5977 48.2759L23.3225 45.9829C25.7359 47.2985 28.4397 47.9883 31.1875 47.9895H31.1948C40.2643 47.9895 47.649 40.5962 47.6527 31.5083C47.6589 29.3428 47.2365 27.1975 46.4098 25.1965C45.5831 23.1954 44.3686 21.3783 42.8365 19.8501ZM31.1948 45.2081H31.1893C28.7391 45.2083 26.334 44.5482 24.2263 43.2969L23.7277 42.9995L18.5503 44.3599L19.9308 39.3056L19.6063 38.7878C18.2364 36.6038 17.5113 34.0764 17.5145 31.4973C17.5182 23.9443 23.6543 17.7994 31.2003 17.7994C32.9974 17.7954 34.7775 18.1484 36.4375 18.8379C38.0975 19.5274 39.6045 20.5398 40.8712 21.8164C42.1446 23.087 43.154 24.5977 43.8409 26.2612C44.5279 27.9248 44.8788 29.7082 44.8733 31.5083C44.8697 39.0614 38.7335 45.2081 31.1948 45.2081ZM38.6987 34.947C38.2862 34.7396 36.2658 33.7445 35.8882 33.6068C35.5123 33.4691 35.2392 33.4012 34.9642 33.8124C34.6892 34.2237 33.9008 35.1508 33.6607 35.4262C33.4205 35.7016 33.1803 35.7347 32.7697 35.529C32.359 35.3234 31.0335 34.8883 29.4623 33.4856C28.2395 32.3933 27.4145 31.0457 27.1743 30.6326C26.9342 30.2195 27.1487 29.9974 27.3558 29.7917C27.541 29.6081 27.7665 29.3107 27.9718 29.0702C28.1772 28.8297 28.245 28.659 28.3825 28.3836C28.52 28.1082 28.4522 27.8677 28.3477 27.662C28.245 27.4546 27.4218 25.4277 27.079 24.6034C26.7472 23.8047 26.408 23.9112 26.155 23.9002C25.893 23.8895 25.6307 23.8846 25.3685 23.8855C25.16 23.8908 24.9548 23.9392 24.7658 24.0277C24.5768 24.1162 24.4081 24.2428 24.2703 24.3996C23.8927 24.8127 22.8312 25.8077 22.8312 27.8346C22.8312 29.8615 24.3052 31.8204 24.5105 32.0958C24.7158 32.3712 27.4108 36.5296 31.5358 38.3141C32.5185 38.7382 33.2848 38.9916 33.8807 39.1825C34.8652 39.4965 35.7617 39.4506 36.4712 39.3459C37.2613 39.2284 38.904 38.3509 39.2468 37.3888C39.5897 36.4268 39.5897 35.6025 39.487 35.4299C39.3843 35.2573 39.1075 35.1527 38.6987 34.947Z" fill="#FAFAFA"/>
</svg>
